<svg width="351" height="322" viewBox="0 0 351 322" fill="none" xmlns="http://www.w3.org/2000/svg">
<g clip-path="url(#clip0_2004_2)">
<path d="M53.3564 100V50C53.3564 23.5 50.8564 14.25 37.1064 0H102.106C88.3564 14.25 85.8564 23.5 85.8564 50V100C85.8564 126.5 88.3564 135.75 102.106 150H37.1064C50.8564 135.75 53.3564 126.5 53.3564 100ZM164.856 108C164.856 87 138.106 70.25 114.606 66C133.106 62 154.856 49 154.856 33C154.856 17 148.106 6.75 127.106 0C157.356 0 192.356 3.75 192.356 33C192.356 60.75 163.106 65 150.856 66C168.106 67.5 202.356 75.25 202.356 108C202.356 142.25 164.856 150 127.106 150C150.606 143.5 164.856 129 164.856 108Z" fill="white"/>
<path d="M291.078 59.75C321.828 78.5 350.078 94 350.078 117.5C350.078 137.5 330.828 150 307.078 150C328.078 119.75 310.828 112.5 264.328 84.75C227.578 62.75 209.578 53.5 209.578 31.75C209.578 12.25 222.328 0 243.078 0C228.828 27.25 255.578 38.25 291.078 59.75ZM214.578 100C222.078 127.5 237.078 142.5 264.578 150H214.578V100ZM337.578 37.5C330.078 15 322.578 7.5 300.078 0H337.578V37.5Z" fill="white"/>
<path d="M291.078 228.677C321.828 247.427 350.078 262.927 350.078 286.427C350.078 306.427 330.828 318.927 307.078 318.927C328.078 288.677 310.828 281.427 264.328 253.677C227.578 231.677 209.578 222.427 209.578 200.677C209.578 181.177 222.328 168.927 243.078 168.927C228.828 196.177 255.578 207.177 291.078 228.677ZM214.578 268.927C222.078 296.427 237.078 311.427 264.578 318.927H214.578V268.927ZM337.578 206.427C330.078 183.927 322.578 176.427 300.078 168.927H337.578V206.427Z" fill="white"/>
<path d="M202.548 292.892C201.892 298.105 200.561 303.212 198.588 308.082C196.755 312.814 194.432 317.342 191.658 321.592C190.138 319.142 187.908 315.442 185.288 310.892C180.768 303.022 178.808 298.942 174.058 290.292C169.448 281.892 169.558 282.292 163.328 271.062C159.528 264.192 156.648 258.932 150.908 248.422C145.978 239.392 140.988 230.402 136.098 221.352C133.618 216.772 129.848 209.792 124.348 200.932C121.559 196.292 118.37 191.906 114.818 187.822C112.15 184.646 109.123 181.79 105.798 179.312C102.643 177.064 99.2112 175.232 95.5876 173.862C91.9708 172.517 88.1909 171.659 84.3477 171.312C117.808 171.212 151.261 171.112 184.708 171.012C181.61 171.843 178.605 172.985 175.738 174.422C173.851 175.291 172.089 176.407 170.498 177.742C168.914 179.079 167.595 180.7 166.608 182.522C165.583 184.533 164.955 186.723 164.758 188.972C164.463 191.24 164.483 193.539 164.818 195.802C165.378 199.592 166.678 202.302 169.228 207.102C172.318 212.912 174.548 216.692 176.568 220.252C179.728 225.812 179.078 225.042 183.138 232.372C188.948 242.872 190.078 244.122 193.418 250.822C195.319 254.388 196.983 258.076 198.398 261.862C200.544 267.984 201.895 274.356 202.418 280.822C202.906 284.828 202.949 288.876 202.548 292.892Z" fill="white"/>
<path d="M116.1 288.837C115.929 292.159 115.501 295.462 114.82 298.717C114.145 301.815 113.236 304.857 112.1 307.817C111.121 310.492 109.986 313.106 108.7 315.647C107.45 318.087 106.22 320.117 105.21 321.687C100.34 312.857 96.3999 305.677 93.7199 300.757C88.7399 291.637 87.6099 289.517 84.2699 283.477C78.9299 273.817 78.8299 273.837 73.7999 264.757C70.7999 259.317 66.33 251.247 60.78 240.757C56.06 231.827 55.15 229.827 51.59 223.477C49.24 219.297 47.2999 216.007 43.4199 209.437C39.2099 202.327 37.84 200.167 36.27 197.857C34.0629 194.506 31.6306 191.309 28.9899 188.287C24.9089 183.312 19.8383 179.239 14.1 176.327C11.5051 174.966 8.81862 173.786 6.06 172.797C3.73 171.947 1.67 171.327 0 170.887C3.59 170.817 8.29 170.797 13.8 170.967C19.55 171.137 23.5601 171.257 28.9501 171.907C33.7434 172.404 38.4932 173.256 43.16 174.457C48.83 175.947 53.84 177.227 59.67 180.667C63.5393 182.974 67.0895 185.778 70.23 189.007C74.03 192.827 76.23 196.127 79.25 200.667C81.53 204.097 83.3801 207.397 86.9901 213.857C89.8201 218.917 90.06 219.517 94.31 227.307C99.13 236.127 99.38 236.367 102.31 241.857C106.26 249.237 108.23 252.927 109.8 256.587C112.14 262.037 114.33 267.217 115.5 274.287C116.263 279.098 116.465 283.981 116.1 288.837Z" fill="white"/>
</g>
<defs>
<clipPath id="clip0_2004_2">
<rect width="350.078" height="321.687" fill="white"/>
</clipPath>
</defs>
</svg>
